<svg width="24" height="24" viewBox="0 0 24 24" fill="none" xmlns="http://www.w3.org/2000/svg">
<path d="M15.75 13.8125L18.7917 11.2083L21 11.3958L17.4167 14.4583L18.5 19L16.7292 17.9375L15.75 13.8125ZM13.9375 8.29167L13.0417 6.22917L14 4L15.9167 8.45833L13.9375 8.29167ZM8.33333 15.8958L11 14.3125L13.6875 15.8958L12.9792 12.8958L15.2917 10.9167L12.2292 10.6458L11 7.79167L9.77083 10.6458L6.70833 10.9167L9.04167 12.8958L8.33333 15.8958ZM6.0625 19L7.375 13.4583L3 9.72917L8.75 9.22917L11 4L13.25 9.25L19 9.72917L14.625 13.4583L15.9375 19L11 16.0625L6.0625 19Z" fill="#BBBBBB"/>
</svg>
