<svg width="19" height="16" viewBox="0 0 19 16" fill="none" xmlns="http://www.w3.org/2000/svg">
<path d="M1.94828 14.8958L0.302443 13.2292C0.107998 13.0347 0.00730364 12.8021 0.000359195 12.5312C-0.00658525 12.2604 0.0871648 12.0278 0.281609 11.8333C1.37883 10.6528 2.67744 9.71875 4.17744 9.03125C5.67744 8.34375 7.30244 8 9.05244 8C10.8024 8 12.4274 8.34375 13.9274 9.03125C15.4274 9.71875 16.7261 10.6528 17.8233 11.8333C18.0177 12.0278 18.1115 12.2604 18.1045 12.5312C18.0976 12.8021 17.9969 13.0347 17.8024 13.2292L16.1566 14.8958C16.0038 15.0486 15.8094 15.1458 15.5733 15.1875C15.3372 15.2292 15.1011 15.1667 14.8649 15L12.4691 13.2917C12.3441 13.1944 12.2434 13.0729 12.167 12.9271C12.0906 12.7813 12.0524 12.6344 12.0524 12.4865V9.95833C11.5663 9.80556 11.0751 9.69097 10.5787 9.61458C10.0823 9.53819 9.57355 9.5 9.05244 9.5C8.53133 9.5 8.02258 9.53819 7.52619 9.61458C7.0298 9.69097 6.53855 9.80556 6.05244 9.95833V12.4865C6.05244 12.6344 6.01425 12.7813 5.93786 12.9271C5.86147 13.0729 5.76078 13.1944 5.63578 13.2917L3.23994 15C3.00383 15.1667 2.76425 15.2257 2.52119 15.1771C2.27814 15.1285 2.08716 15.0347 1.94828 14.8958ZM4.55244 10.3542C4.03855 10.6042 3.54203 10.9028 3.06286 11.25C2.58369 11.5972 2.12883 11.9722 1.69828 12.375L2.71911 13.3958L4.55244 12.0833V10.3542ZM13.5524 10.3542V12.0833L15.3858 13.3958L16.4066 12.375C15.9761 11.9583 15.5247 11.5799 15.0524 11.2396C14.5802 10.8993 14.0802 10.6042 13.5524 10.3542ZM8.30244 4V0H9.80244V4H8.30244ZM13.4899 6.22917L12.4274 5.16667L15.2608 2.33333L16.3233 3.39583L13.4899 6.22917ZM4.61494 6.22917L1.78161 3.39583L2.84411 2.33333L5.67744 5.16667L4.61494 6.22917Z" fill="#BBBBBB"/>
</svg>
