<svg width="47" height="38" viewBox="0 0 47 38" fill="none" xmlns="http://www.w3.org/2000/svg">
<path fill-rule="evenodd" clip-rule="evenodd" d="M36.1144 32.004V36.5786C36.1144 36.9425 35.8194 37.2375 35.4555 37.2375H0.658824C0.294965 37.2375 0 36.9425 0 36.5786V11.1257C0 10.7619 0.294965 10.4669 0.658824 10.4669H5.18993V5.89224C5.18993 5.52838 5.48489 5.23341 5.84875 5.23341H10.3798V0.658824C10.3798 0.294965 10.6747 0 11.0386 0H45.8353C46.1992 0 46.4941 0.294965 46.4941 0.658824V26.1117C46.4941 26.4756 46.1992 26.7705 45.8353 26.7705H41.3042V31.3452C41.3042 31.7091 41.0092 32.004 40.6454 32.004H36.1144ZM34.7967 11.7846H1.31765V35.9198H34.7967V11.7846ZM39.9865 6.55106H6.50758V10.4669H35.4555C35.8194 10.4669 36.1144 10.7619 36.1144 11.1257V30.6864H39.9865C39.9865 29.8205 39.9865 6.55106 39.9865 6.55106ZM41.3042 25.4529H45.1765V1.31765H11.6974V5.23341H40.6454C41.0092 5.23341 41.3042 5.52838 41.3042 5.89224V25.4529ZM16.9418 19.4295C16.9418 22.8567 14.1594 25.6391 10.7322 25.6391C7.30503 25.6391 4.52264 22.8567 4.52264 19.4295C4.52264 16.0024 7.30503 13.2199 10.7322 13.2199C14.1594 13.2199 16.9418 16.0024 16.9418 19.4295ZM15.58 18.7706C15.287 16.5973 13.5644 14.8747 11.3911 14.5816V18.7706H15.58ZM10.0734 14.5816C7.68452 14.9038 5.84028 16.9529 5.84028 19.4295C5.84028 22.1294 8.03228 24.3214 10.7322 24.3214C13.2088 24.3214 15.258 22.4772 15.58 20.0883H10.7322C10.3684 20.0883 10.0734 19.7933 10.0734 19.4295V14.5816ZM4.3344 29.1552C3.97082 29.1552 3.67558 28.86 3.67558 28.4964C3.67558 28.1327 3.97082 27.8376 4.3344 27.8376H31.6729C32.0365 27.8376 32.3318 28.1327 32.3318 28.4964C32.3318 28.86 32.0365 29.1552 31.6729 29.1552H4.3344ZM19.6008 15.0907C19.2371 15.0907 18.9419 14.7955 18.9419 14.4319C18.9419 14.0683 19.2371 13.7731 19.6008 13.7731H31.6729C32.0365 13.7731 32.3318 14.0683 32.3318 14.4319C32.3318 14.7955 32.0365 15.0907 31.6729 15.0907H19.6008ZM19.6008 18.6069C19.2371 18.6069 18.9419 18.3116 18.9419 17.948C18.9419 17.5844 19.2371 17.2892 19.6008 17.2892H31.6729C32.0365 17.2892 32.3318 17.5844 32.3318 17.948C32.3318 18.3116 32.0365 18.6069 31.6729 18.6069H19.6008ZM19.6008 22.1229C19.2371 22.1229 18.9419 21.8278 18.9419 21.4641C18.9419 21.1005 19.2371 20.8053 19.6008 20.8053H31.6729C32.0365 20.8053 32.3318 21.1005 32.3318 21.4641C32.3318 21.8278 32.0365 22.1229 31.6729 22.1229H19.6008ZM19.6008 25.6391C19.2371 25.6391 18.9419 25.3438 18.9419 24.9802C18.9419 24.6166 19.2371 24.3214 19.6008 24.3214H31.6729C32.0365 24.3214 32.3318 24.6166 32.3318 24.9802C32.3318 25.3438 32.0365 25.6391 31.6729 25.6391H19.6008ZM4.3344 32.6712C3.97082 32.6712 3.67558 32.3761 3.67558 32.0124C3.67558 31.6488 3.97082 31.3536 4.3344 31.3536H31.6729C32.0365 31.3536 32.3318 31.6488 32.3318 32.0124C32.3318 32.3761 32.0365 32.6712 31.6729 32.6712H4.3344Z" fill="#360083"/>
</svg>
