<svg width="45" height="41" viewBox="0 0 45 41" fill="none" xmlns="http://www.w3.org/2000/svg">
<path d="M42.735 0H2.25C1.0125 0 0 1.0125 0 2.25V27.3375C0 28.575 1.0125 29.5875 2.25 29.5875H19.17C18.9375 31.4175 18.27 34.0125 16.455 35.625H14.91C13.4325 35.625 12.225 36.8325 12.225 38.31C12.225 39.7875 13.4325 40.995 14.91 40.995H30.345C31.8225 40.995 33.03 39.7875 33.03 38.31C33.03 36.8325 31.8225 35.625 30.345 35.625H28.8075C26.9925 34.0125 26.325 31.4175 26.0925 29.5875H42.735C43.9725 29.5875 44.985 28.575 44.985 27.3375V2.25C44.985 1.0125 43.9725 0 42.735 0ZM28.5075 37.125H30.345C30.9975 37.125 31.53 37.6575 31.53 38.31C31.53 38.9625 30.9975 39.495 30.345 39.495H14.91C14.2575 39.495 13.725 38.9625 13.725 38.31C13.725 37.6575 14.2575 37.125 14.91 37.125H28.5075ZM26.76 35.625H18.5025C19.9425 33.7125 20.4825 31.2975 20.685 29.5875H24.585C24.7875 31.2975 25.3275 33.72 26.7675 35.625H26.76ZM43.485 27.3375C43.485 27.75 43.1475 28.0875 42.735 28.0875H2.25C1.8375 28.0875 1.5 27.75 1.5 27.3375V23.1225H43.485V27.3375ZM43.485 21.6225H1.5V5.46H43.485V21.6225ZM43.485 3.96H1.5V2.25C1.5 1.8375 1.8375 1.5 2.25 1.5H42.735C43.1475 1.5 43.485 1.8375 43.485 2.25V3.96ZM37.725 25.5975C37.725 25.185 38.0625 24.8475 38.475 24.8475H39.3825C39.795 24.8475 40.1325 25.185 40.1325 25.5975C40.1325 26.01 39.795 26.3475 39.3825 26.3475H38.475C38.0625 26.3475 37.725 26.01 37.725 25.5975ZM6.5625 20.1525H16.59C17.8275 20.1525 18.84 19.14 18.84 17.9025V9.18C18.84 7.9425 17.8275 6.93 16.59 6.93H6.555C5.3175 6.93 4.305 7.9425 4.305 9.18V17.9025C4.305 19.14 5.3175 20.1525 6.555 20.1525H6.5625ZM10.065 8.43H13.08V11.7375L12.495 11.16C11.985 10.65 11.1525 10.6575 10.6425 11.16L10.0575 11.7375V8.43H10.065ZM5.8125 9.18C5.8125 8.7675 6.15 8.43 6.5625 8.43H8.565V12.1875C8.565 12.72 8.88 13.1925 9.375 13.4025C9.87 13.605 10.425 13.4925 10.8075 13.1175L11.58 12.3525L12.3525 13.1175C12.6 13.365 12.9375 13.5 13.275 13.5C13.4475 13.5 13.62 13.47 13.7775 13.4025C14.265 13.2 14.5875 12.72 14.5875 12.1875V8.43H16.59C17.0025 8.43 17.34 8.7675 17.34 9.18V17.9025C17.34 18.315 17.0025 18.6525 16.59 18.6525H6.555C6.1425 18.6525 5.805 18.315 5.805 17.9025V9.18H5.8125ZM6.5325 16.5075C6.5325 16.095 6.87 15.7575 7.2825 15.7575H10.785C11.1975 15.7575 11.535 16.095 11.535 16.5075C11.535 16.92 11.1975 17.2575 10.785 17.2575H7.2825C6.87 17.2575 6.5325 16.92 6.5325 16.5075ZM21.7575 8.85C21.7575 8.4375 22.095 8.1 22.5075 8.1H39.7575C40.17 8.1 40.5075 8.4375 40.5075 8.85C40.5075 9.2625 40.17 9.6 39.7575 9.6H22.5075C22.095 9.6 21.7575 9.2625 21.7575 8.85ZM21.7575 13.005C21.7575 12.5925 22.095 12.255 22.5075 12.255H39.7575C40.17 12.255 40.5075 12.5925 40.5075 13.005C40.5075 13.4175 40.17 13.755 39.7575 13.755H22.5075C22.095 13.755 21.7575 13.4175 21.7575 13.005ZM21.7575 17.16C21.7575 16.7475 22.095 16.41 22.5075 16.41H39.7575C40.17 16.41 40.5075 16.7475 40.5075 17.16C40.5075 17.5725 40.17 17.91 39.7575 17.91H22.5075C22.095 17.91 21.7575 17.5725 21.7575 17.16Z" fill="#360083"/>
</svg>
