<svg width="136" height="48" viewBox="0 0 136 48" fill="none" xmlns="http://www.w3.org/2000/svg">
    <path
        d="M38.7354 11.4122L44.369 20.0226L50.0622 11.4122H54.2353L46.1276 22.8524V31.5224H42.5802V22.8524L34.4733 11.4122H38.7354Z"
        fill="black"></path>
    <path
        d="M67.6181 11.4122C71.4931 11.4122 73.6691 13.4085 73.6691 17.1029C73.6691 20.0822 72.2381 21.751 68.9895 22.4956L60.6139 24.3726C59.213 24.7 58.9443 25.4454 58.9443 26.5771V27.5903C58.9443 27.9177 59.0636 28.0075 59.3315 28.0075H73.1317V31.5231H57.0967C55.9638 31.5231 55.4271 30.9867 55.4271 29.8845V26.8457C55.4271 23.5684 56.4106 21.84 59.8387 21.0659L68.3042 19.1293C69.7352 18.8019 70.1821 18.1161 70.1821 17.1633C70.1821 15.8226 69.3179 14.9286 67.7079 14.9286H56.083V11.413H67.6181V11.4122Z"
        fill="black"></path>
    <path
        d="M88.304 11.4122C92.179 11.4122 94.355 13.4085 94.355 17.1029C94.355 20.0822 92.9239 21.751 89.6754 22.4956L81.2998 24.3726C79.8989 24.7 79.6302 25.4454 79.6302 26.5771V27.5903C79.6302 27.9177 79.7495 28.0075 80.0174 28.0075H93.8176V31.5231H77.7818C76.6489 31.5231 76.1122 30.9867 76.1122 29.8845V26.8457C76.1122 23.5684 77.0957 21.84 80.5239 21.0659L88.9893 19.1293C90.4204 18.8019 90.8672 18.1161 90.8672 17.1633C90.8672 15.8226 90.003 14.9286 88.3931 14.9286H76.7681V11.413H88.304V11.4122Z"
        fill="black"></path>
    <path
        d="M106.009 31.5224H102.134L109.198 13.6461C109.943 11.7691 111.315 11.0539 113.431 11.0539C115.517 11.0539 116.889 11.7691 117.604 13.6461L124.4 31.5224H120.496L114.385 15.3451C114.206 14.8683 113.879 14.6601 113.402 14.6601C112.925 14.6601 112.597 14.8683 112.388 15.3451L106.009 31.5224Z"
        fill="black"></path>
    <path d="M129.706 11.4122V31.5231H126.189V11.4122H129.706Z" fill="black"></path>
    <path
        d="M25.5368 8.14105C23.2235 7.98941 20.8263 9.50959 20.6105 12.7099C20.5138 14.1441 20.5991 15.5881 20.5101 17.0275C20.4655 17.745 20.4331 18.4632 20.298 19.1663C20.0927 20.2369 19.8006 21.2953 18.9417 22.049C17.7008 23.1377 16.3415 23.0358 15.241 21.8023C14.8599 21.3753 14.6402 20.8495 14.4885 20.307C14.3202 19.705 14.3195 19.0765 14.3142 18.4564C14.2983 16.4489 14.3942 14.436 14.2719 12.4353C14.0908 9.48545 11.3872 7.53449 8.49493 8.31005C6.28649 8.90227 5.08188 10.8314 5.07206 12.9302C5.06074 15.4326 5.9725 17.6846 7.45788 19.6763C9.95163 23.0207 13.2922 23.9992 17.297 23.1248C19.1258 22.863 20.7237 22.3523 21.9645 21.8514C21.3962 22.3349 20.8014 22.7868 20.2255 23.2576C18.5145 24.6556 16.8812 26.1478 15.309 27.699C13.459 29.5247 11.3502 32.0105 12.0046 34.8072C12.7601 38.0385 17.0314 39.6333 19.4942 37.2154C20.7901 35.9426 21.1577 34.006 21.2422 32.1916C21.4377 28.0166 21.8845 24.1237 24.4575 20.6495C25.3036 19.5964 26.2984 18.6873 27.2668 17.7525C28.3204 16.7355 29.2737 15.6537 29.6609 14.1871C30.4322 11.2674 28.605 8.34249 25.5368 8.14105Z"
        fill="#8133F1"></path>
    <path
        d="M50.6419 36.7476C50.7513 36.8344 50.8381 36.9423 50.9023 37.0705C50.9664 37.1988 50.9989 37.3361 50.9989 37.4817C50.9989 37.6658 50.9521 37.831 50.8585 37.9781C50.7649 38.1252 50.6283 38.2414 50.4501 38.3267C50.2713 38.4119 50.0607 38.4542 49.8177 38.4542H48.4644V34.8284H49.7656C50.0116 34.8284 50.2215 34.8691 50.3951 34.9506C50.5686 35.0321 50.6985 35.1422 50.7853 35.281C50.8721 35.4198 50.9151 35.576 50.9151 35.7495C50.9151 35.9645 50.857 36.1426 50.7407 36.2829C50.6245 36.4232 50.4713 36.5251 50.2803 36.587C50.4124 36.6073 50.5324 36.6609 50.6419 36.7476ZM48.9376 36.3938H49.7339C49.9558 36.3938 50.1279 36.3418 50.2494 36.2376C50.3709 36.1335 50.4313 35.9894 50.4313 35.8061C50.4313 35.622 50.3709 35.4787 50.2494 35.3746C50.1279 35.2705 49.9528 35.2184 49.7241 35.2184H48.9384V36.3938H48.9376ZM50.3271 37.8974C50.4592 37.7865 50.5249 37.6318 50.5249 37.4342C50.5249 37.2327 50.4554 37.0743 50.3166 36.9581C50.1777 36.8419 49.992 36.7839 49.7595 36.7839H48.9376V38.0634H49.7754C50.0116 38.0634 50.195 38.0083 50.3271 37.8974Z"
        fill="#8133F1"></path>
    <path
        d="M52.9499 34.8284V37.1226C52.9499 37.4447 53.0284 37.6847 53.1869 37.8401C53.3447 37.9962 53.5643 38.0739 53.8451 38.0739C54.1229 38.0739 54.3402 37.9962 54.498 37.8401C54.6557 37.6839 54.735 37.4447 54.735 37.1226V34.8284H55.2082V37.1173C55.2082 37.4191 55.1478 37.6733 55.0263 37.8793C54.9048 38.086 54.741 38.2392 54.5342 38.3395C54.3274 38.4398 54.0964 38.4904 53.8391 38.4904C53.5824 38.4904 53.3507 38.4398 53.1447 38.3395C52.9379 38.2392 52.7748 38.0853 52.6556 37.8793C52.5356 37.6733 52.476 37.4191 52.476 37.1173V34.8284H52.9499Z"
        fill="#8133F1"></path>
    <path d="M57.3057 34.8284V38.4542H56.8325V34.8284H57.3057Z" fill="#8133F1"></path>
    <path d="M59.4183 38.0686H60.6878V38.4534H58.9443V34.8276H59.4175V38.0686H59.4183Z"
        fill="#8133F1"></path>
    <path d="M64.2579 34.8284V35.2131H63.2691V38.4542H62.7959V35.2131H61.8019V34.8284H64.2579Z"
        fill="#8133F1"></path>
    <path d="M70.1284 34.8284V35.2131H69.1397V38.4542H68.6665V35.2131H67.6724V34.8284H70.1284Z"
        fill="#8133F1"></path>
    <path
        d="M72.2674 38.2535C71.9897 38.0958 71.7708 37.8755 71.6093 37.5926C71.4478 37.3097 71.367 36.9921 71.367 36.6383C71.367 36.2844 71.4478 35.9661 71.6093 35.6839C71.7708 35.401 71.9897 35.1815 72.2674 35.023C72.5452 34.8653 72.8524 34.7861 73.1883 34.7861C73.5279 34.7861 73.8366 34.8653 74.1144 35.023C74.3921 35.1807 74.6102 35.4002 74.7703 35.6809C74.9295 35.9615 75.0095 36.2807 75.0095 36.6383C75.0095 36.9959 74.9295 37.3142 74.7703 37.5956C74.611 37.8763 74.3921 38.0958 74.1144 38.2535C73.8366 38.4112 73.5279 38.4904 73.1883 38.4904C72.8516 38.4904 72.5444 38.4112 72.2674 38.2535ZM73.8728 37.9027C74.0759 37.785 74.2351 37.6168 74.3514 37.398C74.4676 37.1792 74.5257 36.9265 74.5257 36.6383C74.5257 36.3471 74.4676 36.0928 74.3514 35.8763C74.2351 35.6598 74.0766 35.4923 73.8751 35.3746C73.6736 35.2569 73.4449 35.1981 73.1883 35.1981C72.9316 35.1981 72.7022 35.2569 72.5014 35.3746C72.2999 35.4923 72.1414 35.6598 72.0252 35.8763C71.9089 36.0928 71.8508 36.3471 71.8508 36.6383C71.8508 36.9265 71.9089 37.1792 72.0252 37.398C72.1414 37.6168 72.3007 37.7842 72.5037 37.9027C72.7067 38.0204 72.9347 38.0792 73.1883 38.0792C73.4411 38.0792 73.6698 38.0204 73.8728 37.9027Z"
        fill="#8133F1"></path>
    <path
        d="M79.1962 38.3629C79.0068 38.2784 78.8588 38.1599 78.7516 38.009C78.6437 37.8582 78.5886 37.6839 78.5848 37.4862H79.0898C79.1071 37.656 79.1773 37.7993 79.3004 37.9155C79.4234 38.0317 79.603 38.0898 79.8393 38.0898C80.0649 38.0898 80.2423 38.0332 80.3729 37.9208C80.5027 37.8084 80.5684 37.6635 80.5684 37.4862C80.5684 37.3474 80.5299 37.235 80.4536 37.1482C80.3774 37.0615 80.2816 36.9958 80.1676 36.9506C80.0529 36.9053 79.8989 36.857 79.7042 36.805C79.4649 36.7423 79.2732 36.6797 79.129 36.6179C78.9849 36.556 78.8618 36.4579 78.7599 36.3236C78.6573 36.1901 78.6067 36.0105 78.6067 35.785C78.6067 35.5873 78.6573 35.4123 78.7577 35.2599C78.8581 35.1075 79 34.989 79.1819 34.9061C79.3638 34.8231 79.5728 34.7808 79.8091 34.7808C80.1487 34.7808 80.4272 34.8661 80.6446 35.0358C80.8612 35.2056 80.9835 35.4311 81.0114 35.7118H80.4914C80.474 35.573 80.4008 35.4508 80.2725 35.3451C80.1442 35.2395 79.9744 35.1867 79.7623 35.1867C79.5645 35.1867 79.403 35.238 79.2785 35.3399C79.1532 35.4425 79.0913 35.585 79.0913 35.7691C79.0913 35.9012 79.1283 36.0083 79.203 36.0913C79.2777 36.1743 79.3698 36.2376 79.4785 36.2814C79.5879 36.3251 79.7411 36.3742 79.9389 36.4293C80.1781 36.4949 80.3706 36.5605 80.5163 36.6247C80.662 36.6888 80.7865 36.7876 80.8906 36.9211C80.9948 37.0547 81.0469 37.2357 81.0469 37.4651C81.0469 37.6416 81.0001 37.8084 80.9065 37.9645C80.8129 38.1207 80.674 38.2474 80.4899 38.344C80.3057 38.4413 80.0891 38.4896 79.8393 38.4896C79.5992 38.4904 79.3856 38.4481 79.1962 38.3629Z"
        fill="#8133F1"></path>
    <path
        d="M83.05 35.2131V36.4255H84.3716V36.8155H83.05V38.0641H84.5279V38.4541H82.576V34.8231H84.5279V35.2131H83.05Z"
        fill="#8133F1"></path>
    <path d="M86.5522 38.0686H87.8217V38.4534H86.0782V34.8276H86.5514V38.0686H86.5522Z"
        fill="#8133F1"></path>
    <path d="M89.6331 38.0686H90.9026V38.4534H89.1591V34.8276H89.6324V38.0686H89.6331Z"
        fill="#8133F1"></path>
    <path
        d="M96.6404 36.7476C96.7498 36.8344 96.8366 36.9423 96.9008 37.0705C96.9649 37.1988 96.9974 37.3361 96.9974 37.4817C96.9974 37.6658 96.9506 37.831 96.857 37.9781C96.7634 38.1252 96.6268 38.2414 96.4487 38.3267C96.2698 38.4119 96.0592 38.4542 95.8162 38.4542H94.4629V34.8284H95.7641C96.0102 34.8284 96.22 34.8691 96.3936 34.9506C96.5672 35.0321 96.697 35.1422 96.7838 35.281C96.8706 35.4198 96.9136 35.576 96.9136 35.7495C96.9136 35.9645 96.8555 36.1426 96.7393 36.2829C96.623 36.4232 96.4698 36.5251 96.2789 36.587C96.4102 36.6073 96.531 36.6609 96.6404 36.7476ZM94.9354 36.3938H95.7316C95.9536 36.3938 96.1256 36.3418 96.2472 36.2376C96.3687 36.1335 96.4291 35.9894 96.4291 35.8061C96.4291 35.622 96.3687 35.4787 96.2472 35.3746C96.1256 35.2705 95.9505 35.2184 95.7218 35.2184H94.9361V36.3938H94.9354ZM96.3249 37.8974C96.457 37.7865 96.5226 37.6318 96.5226 37.4342C96.5226 37.2327 96.4532 37.0743 96.3143 36.9581C96.1755 36.8419 95.9898 36.7839 95.7573 36.7839H94.9354V38.0634H95.7732C96.0094 38.0634 96.1936 38.0083 96.3249 37.8974Z"
        fill="#8133F1"></path>
    <path
        d="M98.9583 35.2131V36.4255H100.28V36.8155H98.9583V38.0641H100.436V38.4541H98.4843V34.8231H100.436V35.2131H98.9583Z"
        fill="#8133F1"></path>
    <path d="M104.22 34.8284V35.2131H103.231V38.4542H102.758V35.2131H101.764V34.8284H104.22Z"
        fill="#8133F1"></path>
    <path d="M107.868 34.8284V35.2131H106.879V38.4542H106.406V35.2131H105.412V34.8284H107.868Z"
        fill="#8133F1"></path>
    <path
        d="M109.757 35.2131V36.4255H111.078V36.8155H109.757V38.0641H111.235V38.4541H109.283V34.8231H111.235V35.2131H109.757Z"
        fill="#8133F1"></path>
    <path
        d="M114.695 38.4542L113.831 36.9717H113.259V38.4542H112.786V34.8284H113.956C114.23 34.8284 114.462 34.8751 114.651 34.9687C114.84 35.0622 114.982 35.189 115.076 35.3482C115.169 35.5081 115.216 35.6899 115.216 35.8944C115.216 36.1441 115.144 36.3644 115 36.5553C114.856 36.7461 114.64 36.8729 114.353 36.9347L115.264 38.4534H114.695V38.4542ZM113.259 36.5915H113.956C114.213 36.5915 114.405 36.5281 114.534 36.4014C114.662 36.2746 114.726 36.1056 114.726 35.8944C114.726 35.6794 114.663 35.5126 114.536 35.3949C114.409 35.2773 114.216 35.2184 113.956 35.2184H113.258V36.5915H113.259Z"
        fill="#8133F1"></path>
</svg>