<svg width="47" height="39" viewBox="0 0 47 39" fill="none" xmlns="http://www.w3.org/2000/svg">
<path fill-rule="evenodd" clip-rule="evenodd" d="M7.06231 3.38776C7.06231 3.75144 6.76715 4.04659 6.40348 4.04659C6.03991 4.04659 5.74466 3.75144 5.74466 3.38776C5.74466 1.5168 7.26146 0 9.13242 0H43.1064C44.9774 0 46.4941 1.5168 46.4941 3.38776V30.757C46.4941 32.628 44.9774 34.1448 43.1064 34.1448H42.349C41.9853 34.1448 41.6902 33.8495 41.6902 33.4859C41.6902 33.1224 41.9853 32.8271 42.349 32.8271H43.1064C44.2497 32.8271 45.1765 31.9003 45.1765 30.757V3.38776C45.1765 2.24452 44.2497 1.31765 43.1064 1.31765H9.13242C7.98918 1.31765 7.06231 2.24452 7.06231 3.38776ZM40.7495 8.07369V35.4429C40.7495 37.3139 39.2327 38.8307 37.3617 38.8307H3.38776C1.51671 38.8307 0 37.3139 0 35.4429V8.07369C0 6.20263 1.51671 4.68593 3.38776 4.68593H37.3617C39.2327 4.68593 40.7495 6.20263 40.7495 8.07369ZM1.31765 12.8295V35.4429C1.31765 36.5862 2.24442 37.513 3.38776 37.513H37.3617C38.5049 37.513 39.4318 36.5862 39.4318 35.4429V12.8295H1.31765ZM23.1156 34.8272C22.7519 34.8272 22.4568 34.532 22.4568 34.1684C22.4568 33.8047 22.7519 33.5096 23.1156 33.5096H36.0632C36.4267 33.5096 36.722 33.8047 36.722 34.1684C36.722 34.532 36.4267 34.8272 36.0632 34.8272H23.1156ZM23.1156 20.4318C22.7519 20.4318 22.4568 20.1366 22.4568 19.773C22.4568 19.4093 22.7519 19.1142 23.1156 19.1142H36.0632C36.4267 19.1142 36.722 19.4093 36.722 19.773C36.722 20.1366 36.4267 20.4318 36.0632 20.4318H23.1156ZM23.1156 31.2283C22.7519 31.2283 22.4568 30.9332 22.4568 30.5695C22.4568 30.2059 22.7519 29.9107 23.1156 29.9107H36.0632C36.4267 29.9107 36.722 30.2059 36.722 30.5695C36.722 30.9332 36.4267 31.2283 36.0632 31.2283H23.1156ZM17.435 15.2888C17.8594 15.2888 18.2664 15.4574 18.5664 15.7576C18.8664 16.0576 19.035 16.4646 19.035 16.8888V33.4536C19.035 33.8779 18.8664 34.2849 18.5664 34.5849C18.2664 34.885 17.8594 35.0536 17.435 35.0536H4.98409C4.55972 35.0536 4.15275 34.885 3.85271 34.5849C3.55266 34.2849 3.38409 33.8779 3.38409 33.4536V16.8888C3.38409 16.4646 3.55266 16.0576 3.85271 15.7576C4.15275 15.4574 4.55972 15.2888 4.98409 15.2888H17.435ZM17.435 16.6065H4.98409C4.90918 16.6065 4.83736 16.6362 4.78438 16.6892C4.73148 16.7422 4.70174 16.814 4.70174 16.8888V33.4536C4.70174 33.5285 4.73148 33.6003 4.78438 33.6533C4.83736 33.7062 4.90918 33.7359 4.98409 33.7359H17.435C17.5099 33.7359 17.5817 33.7062 17.6346 33.6533C17.6876 33.6003 17.7174 33.5285 17.7174 33.4536V16.8888C17.7174 16.814 17.6876 16.7422 17.6346 16.6892C17.5817 16.6362 17.5099 16.6065 17.435 16.6065ZM15.9501 32.0888H6.46899C6.10513 32.0888 5.81016 31.7939 5.81016 31.43V27.5096C5.81016 26.7016 6.13111 25.9266 6.70249 25.3552C7.27388 24.7839 8.04885 24.4629 8.85685 24.4629H9.86664C10.0368 24.4629 10.2003 24.5288 10.323 24.6466L11.2086 25.4974L12.0895 24.6475C12.2123 24.5291 12.3763 24.4629 12.5469 24.4629H13.5623C14.3703 24.4629 15.1452 24.7839 15.7166 25.3552C16.288 25.9266 16.6089 26.7016 16.6089 27.5096V31.43C16.6089 31.7939 16.314 32.0888 15.9501 32.0888ZM14.0821 30.7712H15.2913V27.5096C15.2913 27.051 15.1092 26.6112 14.7848 26.287C14.4606 25.9627 14.0208 25.7805 13.5623 25.7805H12.8129L11.667 26.8861C11.4121 27.132 11.0085 27.1324 10.7531 26.8871L9.60141 25.7805H8.85685C8.39831 25.7805 7.95849 25.9627 7.63416 26.287C7.30993 26.6112 7.12781 27.051 7.12781 27.5096V30.7712H8.33694V28.5983C8.33694 28.2347 8.63219 27.9395 8.99576 27.9395C9.35944 27.9395 9.65459 28.2347 9.65459 28.5983V30.7712H12.7644V28.5983C12.7644 28.2347 13.0597 27.9395 13.4232 27.9395C13.7869 27.9395 14.0821 28.2347 14.0821 28.5983V30.7712ZM11.2095 18.2536C12.7902 18.2536 14.0734 19.5368 14.0734 21.1175C14.0734 22.6982 12.7902 23.9814 11.2095 23.9814C9.62889 23.9814 8.3456 22.6982 8.3456 21.1175C8.3456 19.5368 9.62889 18.2536 11.2095 18.2536ZM11.2095 19.5712C10.3561 19.5712 9.66325 20.2641 9.66325 21.1175C9.66325 21.9709 10.3561 22.6637 11.2095 22.6637C12.063 22.6637 12.7558 21.9709 12.7558 21.1175C12.7558 20.2641 12.063 19.5712 11.2095 19.5712ZM23.1156 27.6295C22.7519 27.6295 22.4568 27.3343 22.4568 26.9706C22.4568 26.6071 22.7519 26.3118 23.1156 26.3118H36.0632C36.4267 26.3118 36.722 26.6071 36.722 26.9706C36.722 27.3343 36.4267 27.6295 36.0632 27.6295H23.1156ZM23.1156 24.0307C22.7519 24.0307 22.4568 23.7354 22.4568 23.3719C22.4568 23.0082 22.7519 22.713 23.1156 22.713H36.0632C36.4267 22.713 36.722 23.0082 36.722 23.3719C36.722 23.7354 36.4267 24.0307 36.0632 24.0307H23.1156ZM23.1156 16.8329C22.7519 16.8329 22.4568 16.5377 22.4568 16.1741C22.4568 15.8105 22.7519 15.5153 23.1156 15.5153H36.0632C36.4267 15.5153 36.722 15.8105 36.722 16.1741C36.722 16.5377 36.4267 16.8329 36.0632 16.8329H23.1156ZM39.4318 11.5118V8.07369C39.4318 6.93035 38.5049 6.00358 37.3617 6.00358H3.38776C2.24442 6.00358 1.31765 6.93035 1.31765 8.07369V11.5118H39.4318ZM35.7375 9.84009C35.1401 9.84009 34.6552 9.35511 34.6552 8.75774C34.6552 8.16038 35.1401 7.67539 35.7375 7.67539C36.3349 7.67539 36.8199 8.16038 36.8199 8.75774C36.8199 9.35511 36.3349 9.84009 35.7375 9.84009ZM26.1194 9.84009C25.5221 9.84009 25.0371 9.35511 25.0371 8.75774C25.0371 8.16038 25.5221 7.67539 26.1194 7.67539C26.7168 7.67539 27.2018 8.16038 27.2018 8.75774C27.2018 9.35511 26.7168 9.84009 26.1194 9.84009ZM30.9285 9.84009C30.3311 9.84009 29.8461 9.35511 29.8461 8.75774C29.8461 8.16038 30.3311 7.67539 30.9285 7.67539C31.5258 7.67539 32.0108 8.16038 32.0108 8.75774C32.0108 9.35511 31.5258 9.84009 30.9285 9.84009Z" fill="#360083"/>
</svg>
