<svg width="48" height="40" viewBox="0 0 48 40" fill="none" xmlns="http://www.w3.org/2000/svg">
<path fill-rule="evenodd" clip-rule="evenodd" d="M45.8067 39.6204H2.13708C0.956063 39.6204 0 38.6362 0 37.4833V2.13708C0 0.984183 0.956063 0 2.13708 0H45.8067C46.9596 0 47.9156 0.984183 47.9156 2.13708V37.4833C47.9156 38.6924 46.9596 39.6204 45.8067 39.6204ZM2.13708 1.34974C1.71529 1.34974 1.34974 1.71529 1.34974 2.13708V37.4833C1.34974 37.9051 1.71529 38.2425 2.13708 38.2425H45.8067C46.2285 38.2425 46.5378 37.9051 46.5378 37.4833V2.13708C46.5378 1.71529 46.2004 1.34974 45.8067 1.34974H2.13708Z" fill="#360083"/>
<path fill-rule="evenodd" clip-rule="evenodd" d="M47.2408 10.1512H0.702988C0.309315 10.1512 0 9.84186 0 9.4763C0 9.08263 0.309315 8.77332 0.702988 8.77332H47.2408C47.6344 8.77332 47.9438 9.08263 47.9438 9.4763C47.9438 9.84186 47.6063 10.1512 47.2408 10.1512Z" fill="#360083"/>
<path fill-rule="evenodd" clip-rule="evenodd" d="M5.39918 7.31105C4.19004 7.31105 3.17773 6.29874 3.17773 5.08961C3.17773 3.88047 4.19004 2.86816 5.39918 2.86816C6.60831 2.86816 7.62062 3.88047 7.62062 5.08961C7.62062 6.29874 6.66455 7.31105 5.39918 7.31105ZM5.39918 4.24602C4.94926 4.24602 4.55559 4.63969 4.55559 5.08961C4.55559 5.56764 4.94926 5.96131 5.39918 5.96131C5.87721 5.96131 6.27088 5.56764 6.27088 5.08961C6.27088 4.63969 5.90533 4.24602 5.39918 4.24602Z" fill="#360083"/>
<path fill-rule="evenodd" clip-rule="evenodd" d="M12.5418 7.31105C11.3326 7.31105 10.3203 6.29874 10.3203 5.08961C10.3203 3.88047 11.3326 2.86816 12.5418 2.86816C13.7509 2.86816 14.7632 3.88047 14.7632 5.08961C14.7632 6.29874 13.779 7.31105 12.5418 7.31105ZM12.5418 4.24602C12.0637 4.24602 11.67 4.63969 11.67 5.08961C11.67 5.56764 12.0637 5.96131 12.5418 5.96131C12.9917 5.96131 13.3853 5.56764 13.3853 5.08961C13.3853 4.63969 12.9917 4.24602 12.5418 4.24602Z" fill="#360083"/>
<path fill-rule="evenodd" clip-rule="evenodd" d="M19.6277 7.31105C18.4186 7.31105 17.4062 6.29874 17.4062 5.08961C17.4062 3.88047 18.4186 2.86816 19.6277 2.86816C20.8368 2.86816 21.8491 3.88047 21.8491 5.08961C21.8491 6.29874 20.8649 7.31105 19.6277 7.31105ZM19.6277 4.24602C19.1497 4.24602 18.756 4.63969 18.756 5.08961C18.756 5.56764 19.1497 5.96131 19.6277 5.96131C20.0776 5.96131 20.4713 5.56764 20.4713 5.08961C20.4713 4.63969 20.1338 4.24602 19.6277 4.24602Z" fill="#360083"/>
<path fill-rule="evenodd" clip-rule="evenodd" d="M44.6252 7.56415C44.2315 7.56415 43.9222 7.25483 43.9222 6.86116V4.86467C43.9222 4.38664 43.5286 3.96485 43.0224 3.96485H37.4266C37.0329 3.96485 36.7236 3.65553 36.7236 3.3181C36.7236 2.95255 37.0329 2.61511 37.4266 2.61511H43.0786C44.3159 2.61511 45.3282 3.62741 45.3282 4.86467V6.88928C45.3001 7.28295 44.9908 7.56415 44.6252 7.56415Z" fill="#360083"/>
<path fill-rule="evenodd" clip-rule="evenodd" d="M32.7031 4.16163H30.1161C29.7224 4.16163 29.4131 3.85231 29.4131 3.45864C29.4131 3.06497 29.7224 2.81189 30.1161 2.81189H32.7031C33.0967 2.81189 33.4061 3.1212 33.4061 3.45864C33.4061 3.82419 33.0686 4.16163 32.7031 4.16163Z" fill="#360083"/>
<path fill-rule="evenodd" clip-rule="evenodd" d="M42.4605 32.8436H25.8981C24.6046 32.8436 23.5079 31.5501 23.5079 30.0035V13.9473L20.1336 13.6661C19.7399 13.638 19.4587 13.3287 19.515 12.935C19.5431 12.5413 19.8524 12.2601 20.2461 12.3164L24.2953 12.6257C24.6608 12.6538 24.9139 12.935 24.9139 13.2724V29.9473C24.9139 30.7346 25.392 31.4376 25.9262 31.4376H42.4886C42.8823 31.4376 43.1916 31.747 43.1916 32.1406C43.1916 32.5343 42.826 32.8436 42.4605 32.8436Z" fill="#360083"/>
<path d="M29.9717 21.8102C29.9717 21.2579 30.4194 20.8102 30.9717 20.8102H40.7912C41.4092 20.8102 41.8792 21.365 41.7776 21.9746L41.1109 25.9746C41.0306 26.4568 40.6134 26.8102 40.1246 26.8102H30.9717C30.4194 26.8102 29.9717 26.3625 29.9717 25.8102V21.8102Z" fill="#CEB0FA"/>
<path fill-rule="evenodd" clip-rule="evenodd" d="M39.4516 30.4253H24.2108C23.8171 30.4253 23.5078 30.116 23.5078 29.7223V18.2214C23.5078 17.8277 23.8171 17.5184 24.2108 17.5184H42.151C42.6853 17.5184 43.2758 17.8277 43.5851 18.2777C43.8101 18.6151 43.8945 19.0369 43.7257 19.4306L40.0702 29.9191C39.9858 30.2285 39.7609 30.4253 39.4516 30.4253ZM24.9138 29.0474H38.9735L42.4885 19.0931C42.4604 19.0088 42.2916 18.9244 42.1792 18.9244H24.97V29.0474H24.9138Z" fill="#360083"/>
<path fill-rule="evenodd" clip-rule="evenodd" d="M40.4354 27.6134H29.6376C29.2439 27.6134 28.9346 27.3041 28.9346 26.9104V21.0334C28.9346 20.6398 29.2439 20.3304 29.6376 20.3304H42.4882C42.8818 20.3304 43.1912 20.6398 43.1912 21.0334C43.1912 21.4271 42.8818 21.7364 42.5163 21.7364H30.3405V26.2637H40.4636C40.8572 26.2637 41.1666 26.573 41.1666 26.9666C41.1666 27.3322 40.801 27.6134 40.4354 27.6134Z" fill="#360083"/>
<path fill-rule="evenodd" clip-rule="evenodd" d="M28.1474 36.1054C26.882 36.1054 25.8135 35.065 25.8135 33.7715C25.8135 32.478 26.882 31.4657 28.1474 31.4657C29.4409 31.4657 30.4532 32.5342 30.4532 33.7715C30.4532 35.065 29.4409 36.1054 28.1474 36.1054ZM28.1474 32.8436C27.6131 32.8436 27.1913 33.2653 27.1913 33.7715C27.1913 34.3058 27.6131 34.7557 28.1474 34.7557C28.7098 34.7557 29.0753 34.3058 29.0753 33.7715C29.0753 33.2653 28.7098 32.8436 28.1474 32.8436Z" fill="#360083"/>
<path fill-rule="evenodd" clip-rule="evenodd" d="M38.5517 36.1054C37.2582 36.1054 36.2178 35.065 36.2178 33.7996C36.2178 32.478 37.2301 31.4657 38.5517 31.4657C39.8452 31.4657 40.8575 32.5342 40.8575 33.7996C40.8575 35.0931 39.789 36.1054 38.5517 36.1054ZM38.5517 32.8436C38.0174 32.8436 37.5675 33.2653 37.5675 33.7996C37.5675 34.362 38.0174 34.7557 38.5517 34.7557C39.0578 34.7557 39.4796 34.3058 39.4796 33.7996C39.4796 33.2653 39.0578 32.8436 38.5517 32.8436Z" fill="#360083"/>
<path fill-rule="evenodd" clip-rule="evenodd" d="M19.1209 16.5623H4.75182C4.35814 16.5623 4.04883 16.253 4.04883 15.8594C4.04883 15.4657 4.35814 15.1564 4.75182 15.1564H19.1209C19.5146 15.1564 19.8239 15.4657 19.8239 15.8594C19.8239 16.253 19.5146 16.5623 19.1209 16.5623Z" fill="#360083"/>
<path fill-rule="evenodd" clip-rule="evenodd" d="M21.2861 20.6397H4.75182C4.35814 20.6397 4.04883 20.3304 4.04883 19.9368C4.04883 19.5431 4.35814 19.2338 4.75182 19.2338H21.2861C21.6798 19.2338 21.9891 19.5431 21.9891 19.9368C21.9891 20.3304 21.6516 20.6397 21.2861 20.6397Z" fill="#360083"/>
<path fill-rule="evenodd" clip-rule="evenodd" d="M21.2861 24.7452H4.75182C4.35814 24.7452 4.04883 24.4078 4.04883 24.0422C4.04883 23.6485 4.35814 23.3392 4.75182 23.3392H21.2861C21.6798 23.3392 21.9891 23.6485 21.9891 24.0422C21.9891 24.4078 21.6516 24.7452 21.2861 24.7452Z" fill="#360083"/>
<path fill-rule="evenodd" clip-rule="evenodd" d="M21.2861 28.8225H4.75182C4.35814 28.8225 4.04883 28.5132 4.04883 28.1195C4.04883 27.7258 4.35814 27.4165 4.75182 27.4165H21.2861C21.6798 27.4165 21.9891 27.7258 21.9891 28.1195C21.9891 28.5132 21.6516 28.8225 21.2861 28.8225Z" fill="#360083"/>
<path fill-rule="evenodd" clip-rule="evenodd" d="M21.2861 32.8717H4.75182C4.35814 32.8717 4.04883 32.5624 4.04883 32.1687C4.04883 31.775 4.35814 31.4657 4.75182 31.4657H21.2861C21.6798 31.4657 21.9891 31.775 21.9891 32.1687C21.9891 32.5624 21.6516 32.8717 21.2861 32.8717Z" fill="#360083"/>
</svg>
