<svg width="24" height="24" viewBox="0 0 24 24" fill="none" xmlns="http://www.w3.org/2000/svg">
<path fill-rule="evenodd" clip-rule="evenodd" d="M4.53961 6.18875C5.51803 5.21929 6.84149 4.67822 8.21884 4.68456C9.5962 4.6909 10.9146 5.24413 11.8841 6.22255C12.8532 7.20056 13.3942 8.52333 13.3883 9.90007V14.6488C13.3883 14.6678 13.3875 14.6868 13.3859 14.7057C13.3327 15.3257 13.0576 15.9056 12.6111 16.339C12.1645 16.7723 11.5765 17.0299 10.9553 17.0644C10.9197 17.0664 10.884 17.0655 10.8485 17.0618L10.0016 16.9726V19.6488C10.0016 20.017 9.70313 20.3154 9.33494 20.3154C8.96675 20.3154 8.66827 20.017 8.66827 19.6488V16.2321C8.66827 16.0431 8.74846 15.8631 8.88889 15.7366C9.02933 15.6102 9.21681 15.5493 9.40473 15.5691L10.9291 15.7296C11.212 15.7029 11.4779 15.5806 11.6825 15.3821C11.8924 15.1783 12.0241 14.9076 12.055 14.6172V9.89565C12.0597 8.87191 11.6575 7.88823 10.9369 7.16101C10.2164 6.43379 9.23644 6.02259 8.21271 6.01788C7.18897 6.01317 6.20529 6.41533 5.47807 7.13589C4.75119 7.8561 4.34004 8.83543 4.33494 9.85863C4.33506 10.9649 4.46371 11.5254 4.60771 11.9431C4.66168 12.0997 4.71532 12.231 4.7762 12.3799C4.80563 12.452 4.83676 12.5282 4.87044 12.6134C4.96824 12.8608 5.06793 13.1392 5.14939 13.491C5.36781 14.3454 5.37662 15.2399 5.17502 16.0985L5.17476 16.0996L4.31774 19.7992C4.23465 20.1579 3.87652 20.3813 3.51782 20.2982C3.15913 20.2151 2.93572 19.857 3.01881 19.4983L3.87631 15.7966L3.87679 15.7946C4.02999 15.1427 4.02285 14.4634 3.85597 13.8149L3.8519 13.7982C3.79038 13.5306 3.71503 13.3175 3.63048 13.1036C3.60808 13.0469 3.58322 12.986 3.557 12.9217C3.4898 12.7571 3.41366 12.5705 3.34717 12.3777C3.14624 11.7948 3.00161 11.0831 3.00161 9.85705V9.85398C3.00795 8.47663 3.56119 7.1582 4.53961 6.18875Z" fill="#BBBBBB"/>
<path fill-rule="evenodd" clip-rule="evenodd" d="M18.0331 8.50784C18.2936 8.24765 18.7157 8.24791 18.9759 8.50843C20.2716 9.80578 20.9992 11.5646 20.9987 13.3982C20.9981 15.2318 20.2696 16.9902 18.9731 18.2868C18.7128 18.5472 18.2906 18.5472 18.0303 18.2868C17.7699 18.0265 17.7699 17.6044 18.0302 17.344C19.0768 16.2974 19.6649 14.878 19.6653 13.3978C19.6657 11.9176 19.0784 10.4979 18.0325 9.45065C17.7723 9.19014 17.7725 8.76803 18.0331 8.50784Z" fill="#BBBBBB"/>
<path fill-rule="evenodd" clip-rule="evenodd" d="M15.671 10.8696C15.9287 10.6066 16.3508 10.6024 16.6138 10.8601C16.9521 11.1916 17.2213 11.5869 17.4059 12.0231C17.5905 12.4593 17.6867 12.9278 17.6891 13.4015C17.6915 13.8751 17.5999 14.3446 17.4198 14.7826C17.2396 15.2207 16.9743 15.6187 16.6394 15.9536C16.379 16.2139 15.9569 16.2138 15.6966 15.9535C15.4362 15.6931 15.4363 15.271 15.6966 15.0106C15.907 14.8004 16.0735 14.5505 16.1867 14.2754C16.2998 14.0004 16.3573 13.7056 16.3558 13.4082C16.3543 13.1108 16.2939 12.8166 16.178 12.5427C16.0621 12.2688 15.893 12.0205 15.6806 11.8124C15.4176 11.5547 15.4133 11.1326 15.671 10.8696Z" fill="#BBBBBB"/>
</svg>
